<svg width="110" height="103" viewBox="0 0 110 103" fill="none" xmlns="http://www.w3.org/2000/svg">
<path d="M56.5 25C59.2614 25 61.5 22.7614 61.5 20C61.5 17.2386 59.2614 15 56.5 15V25ZM91 53.5C91 50.7386 88.7614 48.5 86 48.5C83.2386 48.5 81 50.7386 81 53.5H91ZM91 86V53.5H81V86H91ZM17 103H74V93H17V103ZM56.5 15H17V25H56.5V15ZM0 32V86H10V32H0ZM17 15C7.61116 15 0 22.6112 0 32H10C10 28.134 13.134 25 17 25V15ZM17 93C13.134 93 10 89.866 10 86H0C0 95.3888 7.61116 103 17 103V93ZM81 86C81 89.866 77.866 93 74 93V103C83.3888 103 91 95.3888 91 86H81Z" fill="#696969"/>
<path d="M105.768 6.39941L75.9795 1.6059C72.4004 1.02995 69.9624 5.1308 72.1782 7.99999L98.8849 42.5817C101.092 45.44 105.658 44.1407 106.029 40.5484L109.111 10.7602C109.329 8.65003 107.862 6.73645 105.768 6.39941Z" fill="#696969"/>
<path d="M45 54.5L91.2614 20.2906" stroke="#696969" stroke-width="12" stroke-linecap="round"/>
</svg>
